<svg width="1062" height="153" viewBox="0 0 1062 153" fill="none" xmlns="http://www.w3.org/2000/svg">
<path d="M0.321725 5.39118V148H110.005C128.185 148 151.212 146.586 164.342 130.83C172.422 120.933 172.624 110.227 172.624 105.985C172.624 95.4812 170.604 86.7954 162.12 79.7255C155.05 73.6657 146.97 72.2517 138.083 70.8377C157.878 65.5858 165.352 54.2741 165.352 38.7204C165.352 10.8451 142.729 5.39118 121.721 5.39118H0.321725ZM51.8306 59.728V37.5085H103.339C111.217 37.5085 116.469 40.7404 116.469 48.4162C116.469 56.9 110.207 59.728 102.329 59.728H51.8306ZM51.4266 90.6333H108.995C112.429 90.6333 121.923 90.8353 121.923 102.349C121.923 112.247 115.257 115.479 105.359 115.479H51.4266V90.6333ZM341.992 148V115.681H240.793V92.8552H332.701V60.7379H240.793V37.3065H340.174V5.39118H189.688V148H341.992ZM357.952 5.39118V148H409.258V88.6133H435.922C458.343 88.6133 461.171 109.217 463.797 125.377C465.009 132.85 468.039 141.94 474.503 148H530.658C517.932 133.86 514.7 117.095 512.882 108.409C510.054 95.2792 504.802 74.6756 484.199 69.8277C497.53 65.3838 503.59 48.6182 506.418 38.1145C508.034 32.2566 512.074 18.5209 524.598 5.39118H468.443C462.181 11.855 458.747 20.9448 456.929 25.7927C451.879 39.3264 451.475 56.294 430.468 56.294H409.258V5.39118H357.952ZM688.733 37.3065V5.39118H536.227V37.3065H586.928V148H638.235V37.3065H688.733ZM886.181 76.0896C886.181 54.4761 877.899 39.7304 873.253 32.8626C861.537 15.8949 841.136 0.139295 790.637 0.139295C758.722 0.139295 739.532 7.81513 727.412 16.0969C715.091 24.3788 696.507 42.9623 696.507 78.9175C696.507 92.2492 699.941 121.741 730.24 139.314C741.956 145.98 760.136 152.848 790.435 152.848C815.684 152.848 836.086 149.616 854.669 137.092C883.555 117.499 886.181 88.8153 886.181 76.0896ZM833.662 76.4936C833.662 92.2492 827.804 121.337 792.051 121.337C759.126 121.337 749.026 95.8852 749.026 76.6956C749.026 53.4661 762.358 31.8526 791.849 31.8526C826.39 31.8526 833.662 60.9399 833.662 76.4936ZM904.764 5.39118V148H955.667V97.7031H994.248C1009.8 97.7031 1029.6 97.5011 1043.33 88.2093C1060.7 76.6956 1061.51 57.708 1061.51 50.8402C1061.51 38.9224 1058.68 31.6506 1056.46 27.0047C1046.16 6.19917 1025.15 5.39118 1002.53 5.39118H904.764ZM955.667 37.7105H992.834C998.894 37.7105 1005.16 38.3164 1008.59 44.3763C1009.2 45.5883 1010.41 48.0122 1010.41 51.6481C1010.41 58.314 1006.77 63.1619 1000.51 64.7779C997.682 65.5858 994.854 65.5858 988.996 65.5858H955.667V37.7105Z" fill="#EEEEEE"/>
</svg>
