<svg width="80" height="80" viewBox="0 0 80 80" fill="none" xmlns="http://www.w3.org/2000/svg">
<circle cx="40" cy="40" r="40" transform="rotate(-180 40 40)" fill="#8A60FF"/>
<path d="M33 40C33.0132 39.566 33.1856 39.1939 33.5437 38.8591L43.8599 29.4216C44.1649 29.1488 44.5229 29 44.9605 29C45.8489 29 46.5385 29.6449 46.5385 30.4758C46.5385 30.8726 46.3661 31.2446 46.0611 31.5299L36.7791 40L46.0611 48.4701C46.3661 48.7554 46.5385 49.115 46.5385 49.5242C46.5385 50.3551 45.8489 51 44.9605 51C44.5362 51 44.1649 50.8512 43.8599 50.5784L33.5437 41.1285C33.1724 40.8061 33 40.434 33 40Z" fill="white"/>
</svg>
