<svg width="80" height="81" viewBox="0 0 80 81" fill="none" xmlns="http://www.w3.org/2000/svg">
<circle cx="40" cy="40.5" r="40" fill="#8A60FF" fill-opacity="0.1"/>
<path d="M47 40.5C46.9868 40.934 46.8144 41.3061 46.4563 41.6409L36.1401 51.0784C35.8351 51.3512 35.4771 51.5 35.0395 51.5C34.1511 51.5 33.4615 50.8551 33.4615 50.0242C33.4615 49.6274 33.6339 49.2554 33.9389 48.9701L43.2209 40.5L33.9389 32.0299C33.6339 31.7446 33.4615 31.385 33.4615 30.9758C33.4615 30.1449 34.1511 29.5 35.0395 29.5C35.4638 29.5 35.8351 29.6488 36.1401 29.9216L46.4563 39.3715C46.8276 39.6939 47 40.066 47 40.5Z" fill="#8A60FF"/>
</svg>
