<svg width="13" height="8" viewBox="0 0 13 8" fill="none" xmlns="http://www.w3.org/2000/svg">
<path d="M6.5 8C6.24352 7.99217 6.02367 7.8903 5.82582 7.67875L0.249154 1.58276C0.0879369 1.40255 0 1.19099 0 0.932419C0 0.407444 0.38106 0 0.872041 0C1.10654 0 1.32638 0.101861 1.49493 0.282076L6.5 5.7669L11.5051 0.282076C11.6736 0.101861 11.8861 0 12.128 0C12.6189 0 13 0.407444 13 0.932419C13 1.18315 12.9121 1.40255 12.7508 1.58276L7.16685 7.67875C6.97632 7.89814 6.75648 8 6.5 8Z" fill="#8A60FF"/>
</svg>
