<svg width="162" height="80" viewBox="0 0 162 80" fill="none" xmlns="http://www.w3.org/2000/svg">
<path d="M52.4815 52.1846C52.4815 54.8817 51.1344 56.2302 48.4989 56.2302C45.8633 56.2302 44.5163 54.8817 44.5163 52.1846V40.3996C44.5163 37.7025 45.8633 36.354 48.4989 36.354C51.1344 36.354 52.4815 37.7025 52.4815 40.3996V45.0902H49.7288V40.3996C49.7288 39.5201 49.3188 39.1097 48.4989 39.1097C47.6789 39.1097 47.3275 39.5201 47.3275 40.3996V52.1846C47.3275 53.0641 47.7375 53.4745 48.5575 53.4745C49.3774 53.4745 49.7874 53.0641 49.7874 52.1846V49.0185H52.5401V52.1846H52.4815Z" fill="#FFD989"/>
<path d="M54.7071 55.8782V36.647H57.4598V53.1225H61.8523V55.8782H54.7071Z" fill="#FFD989"/>
<path d="M71.3403 52.1846C71.3403 54.8817 69.9932 56.2302 67.3577 56.2302C64.7221 56.2302 63.3751 54.8817 63.3751 52.1846V40.3996C63.3751 37.7025 64.7221 36.354 67.3577 36.354C69.9932 36.354 71.3403 37.7025 71.3403 40.3996V52.1846ZM68.529 40.3996C68.529 39.5201 68.119 39.1097 67.2991 39.1097C66.4791 39.1097 66.1277 39.5201 66.1277 40.3996V52.1846C66.1277 53.0641 66.5377 53.4745 67.3577 53.4745C68.1776 53.4745 68.5876 53.0641 68.5876 52.1846V40.3996H68.529Z" fill="#FFD989"/>
<path d="M81.531 52.1844C81.531 54.8815 80.1839 56.23 77.5484 56.23C74.9129 56.23 73.5658 54.8815 73.5658 52.1844V36.647H76.3185V52.1258C76.3185 53.0053 76.7284 53.4157 77.5484 53.4157C78.3683 53.4157 78.7783 53.0053 78.7783 52.1258V36.647H81.531V52.1844V52.1844Z" fill="#FFD989"/>
<path d="M83.9908 36.647H88.2663C90.7261 36.647 91.956 37.9955 91.956 40.6926V51.8326C91.956 54.5297 90.6675 55.8782 88.0906 55.8782H83.9908V36.647V36.647ZM86.7435 39.4027V53.1812H87.9734C88.7934 53.1812 89.2034 52.7708 89.2034 51.8913V40.7512C89.2034 39.8717 88.7934 39.4613 87.9734 39.4613H86.7435V39.4027Z" fill="#FFD989"/>
<path d="M94.123 40.3996C94.123 37.7025 95.4701 36.354 98.1056 36.354C100.741 36.354 102.088 37.7025 102.088 40.3996V45.0902H99.3356V40.3996C99.3356 39.5201 98.9256 39.1097 98.1056 39.1097C97.2857 39.1097 96.9343 39.5201 96.9343 40.3996V43.6244C96.9343 45.1488 97.8128 46.4387 99.5113 47.4354C101.268 48.6667 102.088 50.2498 102.088 52.126C102.088 54.8231 100.741 56.1716 98.1056 56.1716C95.4701 56.1716 94.123 54.8231 94.123 52.126V50.7775H96.8757V52.126C96.8757 53.0055 97.2857 53.4159 98.1056 53.4159C98.9256 53.4159 99.3356 53.0055 99.3356 52.126C99.3356 51.1879 98.4571 50.1325 96.7586 48.8426C95.0016 47.6113 94.1816 45.8524 94.1816 43.6244V40.3996H94.123Z" fill="#FFD989"/>
<path d="M117.14 52.1846C117.14 54.8817 115.793 56.2302 113.158 56.2302C110.522 56.2302 109.175 54.8817 109.175 52.1846V40.3996C109.175 37.7025 110.522 36.354 113.158 36.354C115.793 36.354 117.14 37.7025 117.14 40.3996V45.0902H114.387V40.3996C114.387 39.5201 113.977 39.1097 113.158 39.1097C112.338 39.1097 111.986 39.5201 111.986 40.3996V52.1846C111.986 53.0641 112.396 53.4745 113.216 53.4745C114.036 53.4745 114.446 53.0641 114.446 52.1846V50.7775H113.158V48.0218H117.14V52.1846Z" fill="#8A60FF"/>
<path d="M127.272 52.1846C127.272 54.8817 125.925 56.2302 123.29 56.2302C120.654 56.2302 119.307 54.8817 119.307 52.1846V40.3996C119.307 37.7025 120.654 36.354 123.29 36.354C125.925 36.354 127.272 37.7025 127.272 40.3996V52.1846ZM124.52 40.3996C124.52 39.5201 124.11 39.1097 123.29 39.1097C122.47 39.1097 122.118 39.5201 122.118 40.3996V52.1846C122.118 53.0641 122.528 53.4745 123.348 53.4745C124.168 53.4745 124.578 53.0641 124.578 52.1846V40.3996H124.52Z" fill="#8A60FF"/>
<path d="M137.405 52.1846C137.405 54.8817 136.057 56.2302 133.422 56.2302C130.786 56.2302 129.439 54.8817 129.439 52.1846V40.3996C129.439 37.7025 130.786 36.354 133.422 36.354C136.057 36.354 137.405 37.7025 137.405 40.3996V52.1846ZM134.593 40.3996C134.593 39.5201 134.183 39.1097 133.363 39.1097C132.543 39.1097 132.192 39.5201 132.192 40.3996V52.1846C132.192 53.0641 132.602 53.4745 133.422 53.4745C134.242 53.4745 134.652 53.0641 134.652 52.1846V40.3996H134.593Z" fill="#8A60FF"/>
<path d="M139.747 36.647H144.023C146.482 36.647 147.712 37.9955 147.712 40.6926V51.8326C147.712 54.5297 146.424 55.8782 143.847 55.8782H139.747V36.647ZM142.5 39.4027V53.1812H143.73C144.55 53.1812 144.96 52.7708 144.96 51.8913V40.7512C144.96 39.8717 144.55 39.4613 143.73 39.4613H142.5V39.4027Z" fill="#8A60FF"/>
<path d="M149.821 40.3996C149.821 37.7025 151.168 36.354 153.803 36.354C156.439 36.354 157.786 37.7025 157.786 40.3996V45.0902H155.033V40.3996C155.033 39.5201 154.623 39.1097 153.803 39.1097C152.984 39.1097 152.632 39.5201 152.632 40.3996V43.6244C152.632 45.1488 153.511 46.4387 155.209 47.4354C156.966 48.6667 157.786 50.2498 157.786 52.126C157.786 54.8231 156.439 56.1716 153.803 56.1716C151.168 56.1716 149.821 54.8231 149.821 52.126V50.7775H152.574V52.126C152.574 53.0055 152.984 53.4159 153.803 53.4159C154.623 53.4159 155.033 53.0055 155.033 52.126C155.033 51.1879 154.155 50.1325 152.456 48.8426C150.699 47.6113 149.879 45.8524 149.879 43.6244V40.3996H149.821Z" fill="#8A60FF"/>
<path d="M35.614 58.9275L27.4146 43.8591L27.2389 50.3673C10.5471 41.9829 9.08292 34.7125 9.66859 30.3151C9.96143 27.9699 13.0655 28.0871 15.8182 30.2565C12.6555 27.9112 10.8985 26.0936 7.79443 26.7972C3.28472 28.3217 3.46043 36.237 4.92462 39.3445C8.61438 47.4943 22.6706 58.7516 35.5555 58.9861C35.5555 58.9275 35.4969 58.8689 35.4383 58.8689L35.614 58.9275Z" fill="#8A60FF"/>
<path d="M39.948 28.2044C39.948 20.1718 30.9286 17.7093 26.4775 22.2825C22.612 26.2109 20.445 35.5334 19.9179 37.8786H17.1652L23.1391 44.504L24.2519 37.8786C24.2519 37.8786 28.2931 23.162 34.6184 25.1555C40.9437 27.149 36.0826 47.7874 36.0826 47.7874C36.0826 47.7874 39.948 36.2369 39.948 28.2044Z" fill="#FFD989"/>
</svg>
