<svg width="28" height="28" viewBox="0 0 28 28" fill="none" xmlns="http://www.w3.org/2000/svg">
<path d="M12.9702 1.06638L0.758163 10.2932C0.376324 10.5817 0.151886 11.0326 0.151886 11.5112V26.3217C0.151886 27.1647 0.835327 27.8482 1.67839 27.8482H26.1024C26.9455 27.8482 27.629 27.1647 27.629 26.3217V11.5112C27.629 11.0326 27.4045 10.5817 27.0227 10.2932L14.8106 1.06638C14.2661 0.654968 13.5147 0.654968 12.9702 1.06638Z" fill="white"/>
<path d="M12.9433 2.18219L1.83014 10.9039L12.9509 19.6316C13.5024 20.0644 14.2778 20.0659 14.831 19.6353L25.9489 10.9802L14.8328 2.18587C14.2795 1.74813 13.4983 1.7466 12.9433 2.18219Z" fill="url(#paint0_linear_1_2457)"/>
<defs>
<linearGradient id="paint0_linear_1_2457" x1="3.50087" y1="1.43957" x2="30.6061" y2="12.8531" gradientUnits="userSpaceOnUse">
<stop stop-color="#4429EB"/>
<stop offset="0.698498" stop-color="#AE6FFF"/>
<stop offset="0.958414" stop-color="#FFE07D"/>
</linearGradient>
</defs>
</svg>
