<svg width="28" height="28" viewBox="0 0 28 28" fill="none" xmlns="http://www.w3.org/2000/svg">
<g clip-path="url(#clip0_1_2440)">
<path d="M10.5548 0.423807C7.50091 0.745577 4.8741 3.02722 4.11941 6.00505C3.70988 7.61974 3.83859 9.31635 4.48798 10.8257C4.8858 11.7442 5.31873 12.3702 6.09098 13.1542C7.19669 14.2716 8.58908 14.9853 10.1687 15.2486C11.3621 15.4475 12.93 15.2954 14.0241 14.8683C15.9781 14.1136 17.5694 12.534 18.3416 10.5859C18.7862 9.45676 18.9501 7.89471 18.7453 6.67199C18.482 5.08654 17.7683 3.70001 16.6509 2.59429C16.0834 2.03265 15.8494 1.84544 15.276 1.48857C14.3692 0.921087 13.2518 0.546665 12.1168 0.423807C11.4499 0.353603 11.2393 0.353603 10.5548 0.423807Z" fill="white"/>
<path d="M20.7571 13.014C20.6167 13.0901 20.4237 13.2656 20.3242 13.4002C20.1663 13.6283 20.1487 13.6927 20.1487 14.1022C20.1487 14.5 20.1663 14.5819 20.3067 14.7867C20.3944 14.9095 20.5641 15.0792 20.6869 15.1611L20.9034 15.3074H23.8403H26.7772L27.0346 15.1319C27.8419 14.5644 27.7249 13.3417 26.8357 12.9672C26.6485 12.8912 26.2097 12.8795 23.8169 12.8795H21.0146L20.7571 13.014Z" fill="white"/>
<path d="M5.47099 17.9167C4.03765 18.1273 2.49901 18.9814 1.60975 20.0696C0.656145 21.2338 0.164715 22.5384 0.153014 23.9659C0.141314 24.7323 0.217368 25.0833 0.533288 25.7503C0.966214 26.6571 1.86132 27.4001 2.92023 27.7219C3.21275 27.8155 3.92064 27.8272 11.0815 27.8447C16.3936 27.8564 19.0555 27.8389 19.3305 27.7979C19.9506 27.7043 20.4362 27.5229 20.9101 27.2012C21.4951 26.815 21.8871 26.3587 22.1972 25.721C22.5014 25.0892 22.5774 24.7499 22.5774 24.0303C22.5774 22.3571 21.9046 20.795 20.6702 19.6074C19.7108 18.6889 18.6401 18.1507 17.3414 17.9401C16.9026 17.8699 15.8905 17.8523 11.3155 17.8582C8.29086 17.864 5.6582 17.8874 5.47099 17.9167Z" fill="white"/>
</g>
<defs>
<clipPath id="clip0_1_2440">
<rect width="27.4771" height="27.4771" fill="white" transform="translate(0.151886 0.371094)"/>
</clipPath>
</defs>
</svg>
