<svg width="80" height="81" viewBox="0 0 80 81" fill="none" xmlns="http://www.w3.org/2000/svg">
<circle cx="40" cy="40.5" r="40" transform="rotate(-180 40 40.5)" fill="#8A60FF" fill-opacity="0.1"/>
<path d="M33 40.5C33.0132 40.066 33.1856 39.6939 33.5437 39.3591L43.8599 29.9216C44.1649 29.6488 44.5229 29.5 44.9605 29.5C45.8489 29.5 46.5385 30.1449 46.5385 30.9758C46.5385 31.3726 46.3661 31.7446 46.0611 32.0299L36.7791 40.5L46.0611 48.9701C46.3661 49.2554 46.5385 49.615 46.5385 50.0242C46.5385 50.8551 45.8489 51.5 44.9605 51.5C44.5362 51.5 44.1649 51.3512 43.8599 51.0784L33.5437 41.6285C33.1724 41.3061 33 40.934 33 40.5Z" fill="#8A60FF"/>
</svg>
