<svg width="80" height="80" viewBox="0 0 80 80" fill="none" xmlns="http://www.w3.org/2000/svg">
<circle cx="40" cy="40" r="40" fill="#8A60FF"/>
<path d="M47 40C46.9868 40.434 46.8144 40.8061 46.4563 41.1409L36.1401 50.5784C35.8351 50.8512 35.4771 51 35.0395 51C34.1511 51 33.4615 50.3551 33.4615 49.5242C33.4615 49.1274 33.6339 48.7554 33.9389 48.4701L43.2209 40L33.9389 31.5299C33.6339 31.2446 33.4615 30.885 33.4615 30.4758C33.4615 29.6449 34.1511 29 35.0395 29C35.4638 29 35.8351 29.1488 36.1401 29.4216L46.4563 38.8715C46.8276 39.1939 47 39.566 47 40Z" fill="white"/>
</svg>
