<svg width="20" height="23" viewBox="0 0 20 23" fill="none" xmlns="http://www.w3.org/2000/svg">
<path d="M7.85321 3.81332C7.09768 3.81332 6.35912 4.03736 5.73093 4.45711C5.10273 4.87686 4.61311 5.47346 4.32398 6.17147C4.03486 6.86949 3.95921 7.63756 4.10661 8.37857C4.254 9.11958 4.61782 9.80024 5.15206 10.3345C5.68629 10.8687 6.36695 11.2325 7.10796 11.3799C7.84897 11.5273 8.61704 11.4517 9.31506 11.1625C10.0131 10.8734 10.6097 10.3838 11.0294 9.7556C11.4492 9.12741 11.6732 8.38885 11.6732 7.63332C11.6732 6.6202 11.2707 5.64857 10.5544 4.93218C9.83796 4.21579 8.86633 3.81332 7.85321 3.81332ZM7.85321 10.12C7.36139 10.12 6.88062 9.97415 6.47169 9.70091C6.06276 9.42767 5.74403 9.03931 5.55582 8.58493C5.36761 8.13055 5.31837 7.63057 5.41432 7.1482C5.51027 6.66583 5.7471 6.22275 6.09487 5.87499C6.44263 5.52722 6.88571 5.29039 7.36808 5.19444C7.85045 5.09849 8.35043 5.14773 8.80481 5.33594C9.25919 5.52415 9.64755 5.84288 9.92079 6.25181C10.194 6.66074 10.3399 7.14151 10.3399 7.63332C10.3381 8.29167 10.0753 8.92246 9.60919 9.38736C9.14304 9.85225 8.51156 10.1133 7.85321 10.1133V10.12Z" fill="black"/>
<path d="M15.7001 8.32665C15.2477 8.31407 14.7992 8.24006 14.3668 8.10665V8.48665C14.3668 11.1933 12.7534 13.6 11.5734 15.36L11.3334 15.7133C10.1868 17.4333 8.66677 19.36 7.84677 20.3133C7.0601 19.36 5.50677 17.4333 4.3601 15.7133L4.13343 15.3333C2.95343 13.5733 1.33343 11.1666 1.33343 8.45998C1.33748 7.33899 1.63077 6.23801 2.18495 5.26357C2.73912 4.28913 3.53542 3.47421 4.49679 2.89765C5.45816 2.3211 6.55206 2.00243 7.67266 1.97247C8.79326 1.94251 9.90263 2.20228 10.8934 2.72665C10.9465 2.26826 11.0632 1.8195 11.2401 1.39332C10.0429 0.815109 8.71827 0.551122 7.39089 0.626215C6.06351 0.701308 4.77708 1.11301 3.65275 1.82255C2.52842 2.5321 1.60318 3.51613 0.964165 4.68199C0.325147 5.84785 -0.00662213 7.15717 0.000100157 8.48665C0.000100157 11.6 1.74677 14.2066 3.02677 16.1066L3.2601 16.4533C4.53362 18.2991 5.89981 20.0791 7.35343 21.7866L7.8601 22.38L8.36677 21.7866C9.8202 20.079 11.1864 18.2989 12.4601 16.4533L12.6934 16.1C13.9668 14.2 15.7134 11.6 15.7134 8.48665C15.7068 8.43332 15.7001 8.37998 15.7001 8.32665Z" fill="black"/>
<path d="M15.8529 6.66667C17.6938 6.66667 19.1862 5.17428 19.1862 3.33333C19.1862 1.49238 17.6938 0 15.8529 0C14.0119 0 12.5195 1.49238 12.5195 3.33333C12.5195 5.17428 14.0119 6.66667 15.8529 6.66667Z" fill="black"/>
</svg>
