<svg width="15" height="10" viewBox="0 0 15 10" fill="none" xmlns="http://www.w3.org/2000/svg">
<path d="M14.0625 0H0.9375C0.68886 0 0.450403 0.0877973 0.274587 0.244078C0.098772 0.400358 0 0.61232 0 0.833333V9.16667C0 9.38768 0.098772 9.59964 0.274587 9.75592C0.450403 9.9122 0.68886 10 0.9375 10H14.0625C14.3111 10 14.5496 9.9122 14.7254 9.75592C14.9012 9.59964 15 9.38768 15 9.16667V0.833333C15 0.61232 14.9012 0.400358 14.7254 0.244078C14.5496 0.0877973 14.3111 0 14.0625 0ZM13.3406 9.16667H1.71562L4.99687 6.15L4.32188 5.57083L0.9375 8.68333V1.46667L6.76406 6.62083C6.93971 6.77604 7.17733 6.86316 7.425 6.86316C7.67267 6.86316 7.91028 6.77604 8.08594 6.62083L14.0625 1.3375V8.62917L10.6125 5.5625L9.95156 6.15L13.3406 9.16667ZM1.55156 0.833333H13.3031L7.425 6.02917L1.55156 0.833333Z" fill="white"/>
</svg>
