<svg width="15" height="15" viewBox="0 0 15 15" fill="none" xmlns="http://www.w3.org/2000/svg">
<path d="M10.5253 9.49928L8.4255 11.5825C6.34232 10.3909 4.61745 8.66601 3.42588 6.58284L5.50905 4.48299C5.7007 4.28301 5.78403 4.00803 5.73403 3.73305L5.10908 0.666616C5.03409 0.283312 4.69245 0 4.29248 0H0.834405C0.367773 0 -0.0238638 0.391637 0.00113431 0.858269C0.14279 3.26642 0.876068 5.52458 2.02598 7.49943C3.34255 9.77426 5.23407 11.6575 7.50057 12.974C9.47542 14.1156 11.7336 14.8572 14.1417 14.9989C14.6084 15.0239 15 14.6322 15 14.1656V10.7075C15 10.3076 14.7167 9.96591 14.3334 9.89092L11.2753 9.28263C11.1421 9.25364 11.0038 9.25827 10.8729 9.29609C10.742 9.33392 10.6225 9.40375 10.5253 9.49928Z" fill="white"/>
</svg>
