<svg width="15" height="16" viewBox="0 0 15 16" fill="none" xmlns="http://www.w3.org/2000/svg">
<path d="M10.5253 9.65312L8.4255 11.7363C6.34232 10.5447 4.61745 8.81985 3.42588 6.73667L5.50905 4.63683C5.7007 4.43685 5.78403 4.16187 5.73403 3.88689L5.10908 0.820455C5.03409 0.437151 4.69245 0.153839 4.29248 0.153839H0.834405C0.367773 0.153839 -0.0238638 0.545476 0.00113431 1.01211C0.14279 3.42026 0.876068 5.67842 2.02598 7.65327C3.34255 9.9281 5.23407 11.8113 7.50057 13.1279C9.47542 14.2694 11.7336 15.011 14.1417 15.1527C14.6084 15.1777 15 14.7861 15 14.3194V10.8614C15 10.4614 14.7167 10.1198 14.3334 10.0448L11.2753 9.43647C11.1421 9.40748 11.0038 9.41211 10.8729 9.44993C10.742 9.48776 10.6225 9.55759 10.5253 9.65312Z" fill="black"/>
</svg>
