<svg width="16" height="18" viewBox="0 0 16 18" fill="none" xmlns="http://www.w3.org/2000/svg">
<path d="M6.31653 3.06689C5.70887 3.06689 5.11485 3.24709 4.6096 3.58469C4.10435 3.92228 3.71056 4.40213 3.47801 4.96353C3.24547 5.52494 3.18463 6.14269 3.30318 6.73868C3.42173 7.33466 3.71434 7.88211 4.14402 8.31179C4.57371 8.74147 5.12115 9.03409 5.71714 9.15264C6.31312 9.27119 6.93088 9.21034 7.49228 8.9778C8.05369 8.74526 8.53353 8.35146 8.87113 7.84621C9.20873 7.34096 9.38892 6.74694 9.38892 6.13928C9.38892 5.32443 9.06522 4.54296 8.48904 3.96678C7.91285 3.39059 7.13138 3.06689 6.31653 3.06689ZM6.31653 8.13929C5.92097 8.13929 5.53429 8.02199 5.20539 7.80222C4.87649 7.58246 4.62015 7.2701 4.46877 6.90465C4.31739 6.5392 4.27779 6.13706 4.35496 5.7491C4.43213 5.36114 4.62261 5.00477 4.90232 4.72507C5.18202 4.44536 5.53839 4.25488 5.92635 4.17771C6.31431 4.10054 6.71645 4.14015 7.0819 4.29152C7.44735 4.4429 7.75971 4.69924 7.97947 5.02814C8.19923 5.35704 8.31653 5.74372 8.31653 6.13928C8.31511 6.66879 8.10377 7.17612 7.72885 7.55003C7.35393 7.92395 6.84604 8.13393 6.31653 8.13392V8.13929Z" fill="white"/>
<path d="M12.6274 6.6971C12.2636 6.68698 11.9028 6.62745 11.555 6.52015V6.82578C11.555 9.00273 10.2575 10.9384 9.3084 12.3539L9.11537 12.6381C8.19312 14.0215 6.97059 15.5711 6.31108 16.3379C5.67837 15.5711 4.42904 14.0215 3.50679 12.6381L3.32448 12.3325C2.37542 10.9169 1.07247 8.98128 1.07247 6.80433C1.07572 5.90273 1.31162 5.01722 1.75733 4.23349C2.20305 3.44976 2.8435 2.79432 3.61672 2.33061C4.38994 1.86689 5.26976 1.61059 6.17105 1.58649C7.07234 1.5624 7.96459 1.77133 8.76148 2.19307C8.80415 1.82439 8.89799 1.46346 9.0403 1.12068C8.07742 0.655637 7.01202 0.443315 5.94442 0.503711C4.87682 0.564108 3.84216 0.895236 2.93787 1.46591C2.03359 2.03659 1.28942 2.82804 0.775469 3.76573C0.261513 4.70342 -0.00532611 5.75649 8.05551e-05 6.82578C8.05551e-05 9.32981 1.40491 11.4263 2.4344 12.9545L2.62207 13.2333C3.64635 14.7178 4.74516 16.1495 5.91429 17.5228L6.3218 18.0001L6.72931 17.5228C7.89829 16.1494 8.9971 14.7177 10.0215 13.2333L10.2092 12.9491C11.2333 11.421 12.6382 9.32981 12.6382 6.82578C12.6328 6.78289 12.6274 6.73999 12.6274 6.6971Z" fill="white"/>
<path d="M12.7513 5.36193C14.2319 5.36193 15.4322 4.16162 15.4322 2.68097C15.4322 1.20031 14.2319 0 12.7513 0C11.2706 0 10.0703 1.20031 10.0703 2.68097C10.0703 4.16162 11.2706 5.36193 12.7513 5.36193Z" fill="white"/>
</svg>
