<svg width="217" height="64" viewBox="0 0 217 64" fill="none" xmlns="http://www.w3.org/2000/svg">
<path fill-rule="evenodd" clip-rule="evenodd" d="M0 0.25531H217V63.473H0V0.25531Z" fill="#F3C60A"/>
<path fill-rule="evenodd" clip-rule="evenodd" d="M174.396 20.3605C174.396 24.0934 173.001 27.0252 170.209 29.157C167.418 31.2886 163.503 32.3538 158.465 32.3538C153.426 32.3538 149.511 31.2886 146.719 29.157C143.928 27.0252 142.532 24.0934 142.532 20.3605C142.532 16.6273 143.928 13.6952 146.719 11.5636C149.511 9.43203 153.426 8.36649 158.465 8.36649C163.503 8.36649 167.418 9.43203 170.209 11.5636C173.001 13.6952 174.396 16.6273 174.396 20.3605ZM162.121 20.2104C162.121 18.8828 161.95 17.8537 161.608 17.1229C161.052 15.9621 160.068 15.3806 158.658 15.3806C157.225 15.3806 156.243 15.9534 155.708 17.0983C155.366 17.829 155.195 18.8661 155.195 20.2104C155.195 21.5383 155.366 22.5675 155.708 23.2981C156.264 24.4595 157.247 25.0404 158.658 25.0404C160.089 25.0404 161.074 24.4676 161.608 23.3229C161.95 22.5923 162.121 21.5548 162.121 20.2104Z" fill="#2B2B2A"/>
<path fill-rule="evenodd" clip-rule="evenodd" d="M208.35 17.1081C208.35 19.1345 207.611 20.858 206.133 22.2787C204.346 23.9918 201.797 24.8484 198.487 24.8484H193.621V31.1787C172.026 31.1787 196.799 31.1787 176.462 31.1787V9.2424H198.321C201.609 9.2424 204.145 10.049 205.934 11.6555C207.543 13.0991 208.35 14.9144 208.35 17.1081ZM199.414 17.0455C199.414 16.2517 199.16 15.6354 198.653 15.1965C197.968 14.6115 196.854 14.319 195.309 14.319H193.39V19.7718H195.343C196.358 19.7718 197.163 19.6568 197.759 19.4271C198.862 18.9885 199.414 18.1946 199.414 17.0455Z" fill="#2B2B2A"/>
<path fill-rule="evenodd" clip-rule="evenodd" d="M72.3745 31.1783H44.0742V9.2424H72.1425V14.4127H60.7896V17.5781H71.6463V22.5922H60.7896V26.0077H72.3745V31.1783Z" fill="#2B2B2A"/>
<path fill-rule="evenodd" clip-rule="evenodd" d="M40.1066 25.3188C40.1066 27.7211 38.8825 29.3944 36.4325 30.3327C34.9549 30.8985 32.9904 31.1783 30.5412 31.1783C-1.81631 31.1783 33.116 31.1783 8.6499 31.1783V9.2424H31.0046C34.2044 9.2424 36.5321 9.93188 37.9885 11.3106C39.0474 12.3133 39.5768 13.5256 39.5768 14.9457C39.5768 16.1993 39.1525 17.2906 38.3024 18.2206C37.4534 19.1498 36.3114 19.7402 34.8772 19.9914V20.1164C36.2673 20.3043 37.4252 20.7744 38.3524 21.5268C39.5218 22.4876 40.1066 23.7515 40.1066 25.3188ZM30.9053 15.7917C30.9053 15.2279 30.6955 14.7678 30.2763 14.4127C29.7247 13.9325 28.8865 13.6924 27.7606 13.6924H25.4774V17.9224H27.5622C28.8865 17.9224 29.8242 17.6513 30.3759 17.1082C30.7287 16.7531 30.9053 16.3143 30.9053 15.7917ZM31.0374 24.4721C31.0374 23.7412 30.7396 23.1877 30.1442 22.8115C29.5484 22.4357 28.6767 22.2475 27.5292 22.2475H25.4774V26.7286H27.7278C28.9854 26.7286 29.89 26.4571 30.4416 25.9141C30.8389 25.5171 31.0374 25.0366 31.0374 24.4721Z" fill="#2B2B2A"/>
<path fill-rule="evenodd" clip-rule="evenodd" d="M132.784 31.1784C111.77 31.1784 135.658 31.1784 115.731 31.1784V15.7293H107.018V15.5505L111.812 9.24225H115.731H132.784H141.497V15.7293H132.784V31.1784Z" fill="#2B2B2A"/>
<path fill-rule="evenodd" clip-rule="evenodd" d="M8.80518 36.5511H92.3742L95.3483 40.6584H8.80518V36.5511ZM115.912 36.5511H194.133L197.021 40.6584H118.886L118.525 40.1603L115.912 36.5511Z" fill="#2B2B2A" stroke="#2B2B2A" stroke-width="0.288" stroke-miterlimit="22.9256"/>
<path fill-rule="evenodd" clip-rule="evenodd" d="M113.888 46.5988H112.351L93.8676 19.7058H92.4641L110.947 46.5988H105.212V46.6842H8.80518V41.8922H97.7255L84.0908 21.8713H83.9586V31.1785H75.0881V9.24225H83.9586V17.8601H84.0908L89.5519 9.24225H109.939L102.127 19.521L118.324 41.8922H197.806L201.176 46.6842H113.888V46.5988Z" fill="#E31F25"/>
<path d="M15.9939 53.0408L16.8756 53.251C16.6941 53.9404 16.3587 54.4651 15.8697 54.8239C15.3791 55.1825 14.7954 55.3618 14.1155 55.3618C13.0395 55.3618 12.2478 55.0413 11.7417 54.4019C11.2356 53.761 10.9824 52.9776 10.9824 52.0501C10.9824 51.0403 11.2744 50.2509 11.8596 49.685C12.4448 49.1177 13.2025 48.834 14.1294 48.834C14.7969 48.834 15.3605 48.9971 15.8185 49.3234C16.2779 49.6483 16.5931 50.098 16.7624 50.6728L15.8945 50.8668C15.5933 49.9894 15.0158 49.5497 14.162 49.5497C13.4028 49.5497 12.8362 49.7762 12.4589 50.2274C12.0817 50.6801 11.8923 51.277 11.8923 52.0207C11.8923 52.913 12.0895 53.573 12.4852 54.0022C12.8811 54.4313 13.4013 54.646 14.0438 54.646C14.5315 54.646 14.9505 54.5107 15.3 54.2417C15.6508 53.9712 15.8822 53.5715 15.9939 53.0408ZM22.1762 55.2544V49.6865H19.9795V48.9413H25.264V49.6865H23.058V55.2544H22.1762ZM28.7403 55.2544V48.9413H31.2553C31.8313 48.9413 32.2909 48.9883 32.634 49.084C32.9755 49.178 33.2612 49.375 33.4878 49.6762C33.7161 49.976 33.8293 50.3392 33.8293 50.7669C33.8293 51.3093 33.6462 51.7664 33.2799 52.1354C32.9119 52.5043 32.2629 52.688 31.3331 52.688H29.6222V55.2544H28.7403ZM29.6222 51.9428H31.3454C31.8702 51.9428 32.2645 51.8473 32.5269 51.6548C32.7892 51.4622 32.9197 51.1756 32.9197 50.7933C32.9197 50.5258 32.8482 50.2994 32.7054 50.1128C32.5641 49.9262 32.398 49.8086 32.2087 49.7601C32.0177 49.7116 31.7242 49.6865 31.3284 49.6865H29.6222V51.9428ZM37.2142 52.1794C37.2142 51.1285 37.5123 50.3083 38.1098 49.7158C38.7077 49.125 39.4731 48.8296 40.4076 48.8296C41.3453 48.8296 42.109 49.1309 42.7021 49.7321C43.2952 50.3333 43.5916 51.1241 43.5916 52.106C43.5916 53.0819 43.2936 53.8684 42.696 54.4666C42.0983 55.0634 41.3345 55.3618 40.4029 55.3618C39.7322 55.3618 39.1454 55.203 38.6409 54.8855C38.1348 54.5681 37.7715 54.161 37.548 53.6626C37.326 53.1644 37.2142 52.6704 37.2142 52.1794ZM38.1239 52.1928C38.1239 52.913 38.3304 53.5023 38.7433 53.9595C39.1547 54.4166 39.7074 54.646 40.3983 54.646C41.0782 54.646 41.6279 54.4196 42.0502 53.9683C42.4709 53.5156 42.6819 52.8938 42.6819 52.1016C42.6819 51.299 42.4693 50.6728 42.0455 50.223C41.6202 49.7747 41.0768 49.5497 40.4122 49.5497C39.7602 49.5497 39.2153 49.7601 38.7791 50.1818C38.3428 50.6037 38.1239 51.2741 38.1239 52.1928ZM47.2948 48.9413H48.0942V53.9404L51.6416 48.9413H52.5281V55.2544H51.7286V50.267L48.1766 55.2544H47.2948V48.9413ZM58.2027 55.2544V49.6865H56.006V48.9413H61.2906V49.6865H59.0845V55.2544H58.2027ZM64.7856 55.2544V48.9413H69.606V49.6865H65.6674V51.6194H69.3561V52.3602H65.6674V54.5093H69.7612V55.2544H64.7856ZM74.0108 48.9413H78.1854V55.2544H77.3036V49.6865H74.8926V52.938C74.8926 53.5979 74.8599 54.0814 74.7948 54.3887C74.7296 54.6959 74.593 54.9341 74.3834 55.106C74.1737 55.2766 73.9083 55.3618 73.5869 55.3618C73.3927 55.3618 73.1599 55.3279 72.8867 55.2588L73.0373 54.518C73.1817 54.5754 73.306 54.6048 73.4099 54.6048C73.6103 54.6048 73.7607 54.5327 73.8601 54.3917C73.961 54.2491 74.0108 53.914 74.0108 53.3848V48.9413ZM82.208 48.9413H83.0898V51.6371H84.6811C85.4247 51.6371 85.9634 51.7195 86.2957 51.8825C86.6295 52.0457 86.8701 52.2692 87.0144 52.5499C87.1604 52.8321 87.2334 53.1216 87.2334 53.4201C87.2334 53.9081 87.0579 54.3357 86.7055 54.7033C86.3547 55.0707 85.6995 55.2544 84.7417 55.2544H82.208V48.9413ZM83.0898 54.5431H84.7044C85.3595 54.5431 85.7865 54.4327 85.9853 54.2139C86.1839 53.9949 86.2832 53.7301 86.2832 53.4201C86.2832 53.1672 86.2118 52.9526 86.0675 52.7763C85.9231 52.5998 85.7305 52.4867 85.4914 52.4352C85.2524 52.3836 84.8456 52.3574 84.2728 52.3574H83.0898V54.5431ZM90.8555 55.2544V48.9413H91.7373V51.5341H95.2023V48.9413H96.0842V55.2544H95.2023V52.2794H91.7373V55.2544H90.8555ZM99.3696 55.2544L101.93 48.9413H102.88L105.609 55.2544H104.605L103.827 53.3421H101.039L100.306 55.2544H99.3696ZM101.293 52.6616H103.554L102.858 50.914C102.636 50.3567 102.479 49.9203 102.385 49.6042C102.299 50.0099 102.18 50.4112 102.026 50.8094L101.293 52.6616ZM114.094 55.2544H113.212V52.4515H112.189C111.788 52.4515 111.473 52.5293 111.242 52.6836C111.015 52.8424 110.671 53.2614 110.209 53.9419L109.326 55.2544H108.216L109.377 53.5361C109.779 52.9424 110.202 52.5573 110.641 52.3823C110.026 52.3103 109.559 52.1206 109.241 51.8134C108.922 51.5062 108.763 51.1241 108.763 50.664C108.763 50.2716 108.87 49.9291 109.085 49.6394C109.304 49.3528 109.571 49.1632 109.886 49.075C110.202 48.9855 110.618 48.9413 111.136 48.9413H114.094V55.2544ZM113.212 51.7268V49.6394H111.101C110.563 49.6394 110.191 49.7424 109.981 49.9497C109.775 50.1583 109.672 50.398 109.672 50.6684C109.672 51.0212 109.809 51.2858 110.082 51.4622C110.355 51.6386 110.765 51.7268 111.315 51.7268H113.212ZM128.445 48.9413H129.327V51.7061C129.73 51.7061 130.013 51.6326 130.177 51.4842C130.34 51.3357 130.55 50.9815 130.805 50.4185C130.989 50.0054 131.142 49.7129 131.263 49.5424C131.382 49.3706 131.553 49.2279 131.773 49.1118C131.995 48.9956 132.239 48.9369 132.506 48.9369C132.846 48.9369 133.025 48.9398 133.042 48.9457V49.6689C133.012 49.6689 132.953 49.6674 132.865 49.6645C132.768 49.6616 132.71 49.6601 132.688 49.6601C132.405 49.6601 132.196 49.7248 132.057 49.8541C131.919 49.9834 131.761 50.2597 131.582 50.6816C131.359 51.2152 131.168 51.5519 131.014 51.6915C130.859 51.8296 130.674 51.9414 130.458 52.0251C130.89 52.1369 131.314 52.5132 131.733 53.1525L133.107 55.2544H132.009L130.896 53.5407C130.589 53.0673 130.333 52.7425 130.128 52.5646C129.921 52.3882 129.654 52.3 129.327 52.3V55.2544H128.445V48.9413ZM136.113 52.1794C136.113 51.1285 136.411 50.3083 137.009 49.7158C137.606 49.125 138.372 48.8296 139.306 48.8296C140.244 48.8296 141.008 49.1309 141.601 49.7321C142.194 50.3333 142.49 51.1241 142.49 52.106C142.49 53.0819 142.192 53.8684 141.595 54.4666C140.997 55.0634 140.233 55.3618 139.302 55.3618C138.631 55.3618 138.044 55.203 137.54 54.8855C137.033 54.5681 136.67 54.161 136.447 53.6626C136.225 53.1644 136.113 52.6704 136.113 52.1794ZM137.023 52.1928C137.023 52.913 137.229 53.5023 137.642 53.9595C138.053 54.4166 138.606 54.646 139.297 54.646C139.977 54.646 140.526 54.4196 140.949 53.9683C141.369 53.5156 141.581 52.8938 141.581 52.1016C141.581 51.299 141.368 50.6728 140.944 50.223C140.519 49.7747 139.975 49.5497 139.311 49.5497C138.659 49.5497 138.114 49.7601 137.678 50.1818C137.241 50.6037 137.023 51.2741 137.023 52.1928ZM146.161 55.2544V48.9413H147.49L149.067 53.4113L149.385 54.3462C149.449 54.1447 149.568 53.8082 149.741 53.3333L151.337 48.9413H152.524V55.2544H151.674V49.9702L149.736 55.2544H148.94L147.012 49.8805V55.2544H146.161ZM156.486 48.9413H161.731V55.2544H160.844V49.6865H157.368V55.2544H156.486V48.9413ZM164.988 55.2544L167.548 48.9413H168.498L171.228 55.2544H170.223L169.445 53.3421H166.657L165.924 55.2544H164.988ZM166.912 52.6616H169.172L168.477 50.914C168.255 50.3567 168.098 49.9203 168.003 49.6042C167.918 50.0099 167.798 50.4112 167.644 50.8094L166.912 52.6616ZM174.496 55.2544V48.9413H175.378V51.5341H178.843V48.9413H179.725V55.2544H178.843V52.2794H175.378V55.2544H174.496ZM183.748 48.9413H184.547V53.9404L188.094 48.9413H188.981V55.2544H188.181V50.267L184.629 55.2544H183.748V48.9413ZM198.212 55.2544H197.33V52.4515H196.307C195.907 52.4515 195.592 52.5293 195.36 52.6836C195.134 52.8424 194.789 53.2614 194.328 53.9419L193.445 55.2544H192.335L193.496 53.5361C193.898 52.9424 194.32 52.5573 194.76 52.3823C194.145 52.3103 193.677 52.1206 193.359 51.8134C193.041 51.5062 192.881 51.1241 192.881 50.664C192.881 50.2716 192.988 49.9291 193.204 49.6394C193.423 49.3528 193.69 49.1632 194.005 49.075C194.32 48.9855 194.736 48.9413 195.255 48.9413H198.212V55.2544ZM197.33 51.7268V49.6394H195.219C194.682 49.6394 194.309 49.7424 194.1 49.9497C193.893 50.1583 193.791 50.398 193.791 50.6684C193.791 51.0212 193.928 51.2858 194.201 51.4622C194.474 51.6386 194.884 51.7268 195.433 51.7268H197.33Z" fill="#2B2B2A"/>
</svg>
